<svg version="1" xmlns="http://www.w3.org/2000/svg" width="293.333" height="293.333" viewBox="0 0 220.000000 220.000000"><path d="M71.1 21.5C57.2 24.6 46.7 29.3 36 37.3-.5 64.7-10.6 117.1 12.7 157.5c11.5 19.8 29.8 34 52.6 40.6 9.5 2.8 28.6 3.4 38.4 1.2 16.6-3.7 33-12.9 44.4-25 5.6-6 13.9-17.1 13.9-18.7 0-.3-2-.6-4.4-.6h-4.4l-2.8-8.2c-1.4-4.6-3-8.8-3.4-9.3-.5-.6-6.8-1-15.6-.9l-14.8.1-3 9.1-3 9-9.2.1-9.2.1 1.5-4.2c.8-2.4 7-19.8 13.8-38.8 6.8-19 13.1-36.9 14.1-39.8 1.1-3 2.5-5.2 3.4-5.3 10.8-.7 14.2-.3 15.2 1.5.6 1 6.9 18.1 14 38 7.1 19.8 13.9 38.8 15.1 42.1 2.1 5.7 2.4 6 5.9 6.3 4.1.3 4.8-.5 11.8-13.6 1.9-3.4 3.6-6.2 3.9-6.2.3 0 2.9 4.4 5.7 9.8l5.2 9.7 9.1.3 9.1.3-3.6-6.8c-2-3.7-6.3-11.3-9.4-16.9l-5.7-10.1 8.8-15.8c4.9-8.6 8.9-15.8 8.9-16 0-.2-4-.3-8.8-.4l-8.8-.1-4.1 7.7c-6.9 12.9-6.4 12.7-10.8 4.2-2.1-4.1-4.3-8.4-4.9-9.6-.9-1.9-1.9-2.3-5.6-2.3h-4.5l-2.9-8.5c-4.8-14-10.8-23.7-21.6-34.5-13.5-13.6-25.4-20.2-44.5-24.7-5.2-1.2-25.4-1.1-31.4.2zM69.3 69c7 2.6 11.1 6 14 11.4 1.8 3.3 2.2 5.8 2.2 13.1 0 7.8-.3 9.6-2.5 13.5-1.4 2.5-4.6 6-7.2 7.9l-4.6 3.4 8.9 17.5C85 145.4 89 153.6 89 154c0 .4-4.2.8-9.2.7h-9.3l-8-16.1-8-16.1-6.7-.1H41v32.4l-8.7-.2-8.8-.1-.1-43c0-23.7.1-43.5.3-44 .2-.6 7.7-.9 20.1-.9 17.6.2 20.3.4 25.5 2.4zm108 47.3l2.8 5.2-5.6 10c-3.1 5.5-5.4 8.9-5 7.5 2.3-9.3 3.7-17.3 3.8-22.2.1-3.2.4-5.8.7-5.8.3 0 1.8 2.4 3.3 5.3z"/><path d="M41 94.6v13.3l9.8-.3c5.3-.1 10.6-.7 11.8-1.4 3.6-2 5.8-6.3 5.8-11.7 0-10.1-3.6-12.8-17.5-13.1l-9.9-.1v13.3zM126.3 106l-5.1 16h10.4c5.7 0 10.4-.3 10.4-.7 0-1.3-9.3-29.8-9.9-30.6-.4-.4-3 6.5-5.8 15.3z"/></svg>